<?xml version="1.0" standalone="no"?>
<!DOCTYPE svg PUBLIC "-//W3C//DTD SVG 20010904//EN"
 "http://www.w3.org/TR/2001/REC-SVG-20010904/DTD/svg10.dtd">
<svg version="1.0" xmlns="http://www.w3.org/2000/svg"
 width="256.000000pt" height="256.000000pt" viewBox="0 0 256.000000 256.000000"
 preserveAspectRatio="xMidYMid meet">

<g transform="translate(0.000000,256.000000) scale(0.100000,-0.100000)"
fill="#000000" stroke="none">
<path d="M560 1914 c-229 -45 -386 -156 -484 -344 -49 -92 -69 -178 -69 -290
0 -249 134 -462 359 -572 225 -109 480 -78 686 84 l37 29 61 -91 61 -90 105 0
106 0 -19 29 c-100 157 -340 511 -345 511 -5 0 -8 -7 -8 -15 0 -24 -49 -116
-86 -161 -103 -127 -311 -183 -465 -125 -124 47 -229 156 -264 274 -19 65 -19
189 0 254 59 197 277 330 481 292 67 -13 164 -60 211 -103 22 -19 140 -186
262 -370 122 -184 240 -355 262 -380 57 -65 171 -137 265 -168 186 -62 364
-40 554 69 3 2 21 -22 40 -52 l35 -55 103 0 c56 0 102 2 102 5 0 4 -254 390
-266 404 -2 2 -14 -9 -26 -25 -74 -95 -178 -153 -298 -167 -101 -12 -245 34
-324 104 -22 18 -142 188 -268 377 -125 188 -245 360 -264 382 -56 62 -170
133 -262 163 -80 27 -223 42 -282 31z"/>
<path d="M1818 1910 c-169 -29 -318 -121 -415 -257 l-45 -64 68 -104 c68 -103
84 -120 84 -89 0 8 11 39 25 67 71 151 219 242 390 240 235 -2 415 -186 415
-423 l0 -81 72 -107 72 -107 21 50 c48 110 63 268 36 385 -55 238 -265 440
-504 485 -85 16 -144 17 -219 5z"/>
</g>
</svg>
